<?xml version="1.0" standalone="no"?>
<!DOCTYPE svg PUBLIC "-//W3C//DTD SVG 1.1//EN" "http://www.w3.org/Graphics/SVG/1.1/DTD/svg11.dtd" >
<svg xmlns="http://www.w3.org/2000/svg">
<metadata>Generated by IcoMoon</metadata>
<defs>
<font id="icomoon" horiz-adv-x="1024">
<font-face units-per-em="1024" ascent="960" descent="-64" />
<missing-glyph horiz-adv-x="1024" />
<glyph unicode="&#x20;" horiz-adv-x="512" d="" />
<glyph unicode="&#xe900;" glyph-name="menu" d="M0 98.342v99.903h1024v-99.903h-1024zM0 497.951h1024v-99.903h-1024v99.903zM0 797.658h1024v-99.903h-1024v99.903z" />
<glyph unicode="&#xe901;" glyph-name="facebook" d="M1023.998 850.31c0 30.427-10.699 56.339-32.015 77.656-19.208 19.768-46.046 32.034-75.748 32.034-0.7 0-1.399-0.006-2.096-0.020l0.104 0.002h-804.557c-30.427 0-56.339-10.616-77.739-32.015-19.718-19.227-31.949-46.053-31.949-75.736 0-0.675 0.006-1.349 0.019-2.021l-0.001 0.101v-804.557c0-30.511 10.616-56.423 31.932-77.739 21.399-21.315 47.312-32.015 77.739-32.015h450.301v404.577h-139.428v155.394h139.428v114.351c0 63.946 17.889 113.85 53.665 149.711 35.86 35.776 84.259 53.665 145.196 53.665 47.229 0 86.85-2.257 118.866-6.854v-137.171h-82.337c-28.922 0-49.485-6.854-61.69-20.563-9.112-12.121-13.709-30.427-13.709-54.836v-98.303h157.735l-20.563-155.394h-137.171v-404.577h194.264c30.511 0 56.423 10.699 77.739 32.015s32.015 47.229 32.015 77.739v804.557z" />
<glyph unicode="&#xe902;" glyph-name="twitter" d="M917.943 655.986c41.401 30.824 76.521 67.2 105.056 108.476l1.001 1.531c-34.842-15.784-75.285-27.693-117.62-33.729l-2.408-0.281c43.402 26.159 75.981 66.518 91.599 114.53l0.415 1.475c-38.612-22.783-83.52-40.152-131.279-49.582l-2.719-0.448c-19.486 19.484-42.328 35.611-67.585 47.44l-1.462 0.615c-24.356 11.369-52.881 18.003-82.955 18.003-0.716 0-1.432-0.004-2.146-0.011l0.109 0.001c-0.137 0-0.3 0.001-0.462 0.001-76.665 0-143.547-41.886-179.011-104.022l-0.532-1.012c-17.567-29.892-27.942-65.841-27.942-104.214 0-0.263 0.001-0.525 0.002-0.787v0.041c0-16.018 1.317-32.037 3.95-48.055-88.641 4.007-171.005 27.215-244.215 65.529l3.208-1.529c-75.819 39.088-139.451 91.549-190.084 154.859l-0.892 1.154c-19.968-33.353-29.988-68.315-29.988-104.96 0-36.718 8.631-70.364 25.966-101.010 17.335-30.72 40.009-56.027 68.023-75.995-34.884 1.361-67.117 11.573-94.863 28.434l0.875-0.494v-3.95c0-49.371 16.018-93.331 47.982-132.023 32.037-38.693 71.973-63.342 120.027-74.020-16.823-3.771-36.158-5.953-55.996-5.998h-0.033c-11.995 0-24.649 0.658-37.961 2.048 13.312-41.326 37.669-75.703 72.997-103.059 35.329-27.282 76.288-40.96 122.953-40.96-70.327-56.121-160.513-90.053-258.625-90.053-1.186 0-2.371 0.005-3.555 0.015l0.181-0.001c-18.651 0-35.329 0.732-49.956 2.048 89.522-58.933 199.297-94.008 317.264-94.008 1.657 0 3.312 0.007 4.965 0.020l-0.254-0.002c122.661 0 231.351 31.305 325.998 93.988 86.675 55.954 153.966 131.292 202.021 226.012 46.665 89.307 69.998 181.98 69.998 277.943 0 11.995-0.658 20.7-2.048 26.039z" />
<glyph unicode="&#xe903;" glyph-name="instagram" d="M512.064 710.864c96.63-0.289 180.996-52.524 226.669-130.236l0.673-1.237c23.654-40.37 35.438-84.167 35.438-131.39s-11.784-91.020-35.438-131.39c-23.465-40.065-55.911-72.538-94.715-95.362l-1.236-0.672c-37.159-22.22-81.969-35.36-129.848-35.36-0.542 0-1.084 0.002-1.626 0.005h0.083c-47.224 0-91.103 11.784-131.473 35.355-40.040 23.497-72.486 55.969-95.279 94.795l-0.673 1.239c-22.272 37.125-35.444 81.917-35.444 129.785 0 0.565 0.002 1.128 0.005 1.691v-0.087c0 47.224 11.784 91.020 35.438 131.39 46.359 78.973 130.763 131.216 227.388 131.473h0.037zM512.064 276.575c47.224 0 87.593 16.8 121.11 50.316s50.232 73.886 50.232 121.11c0 47.224-16.716 87.593-50.232 121.11-30.067 31.056-72.137 50.333-118.712 50.333-0.844 0-1.685-0.006-2.525-0.019l0.127 0.001c-47.224 0-87.677-16.8-121.193-50.316-31.006-30.047-50.251-72.075-50.251-118.596 0-0.884 0.007-1.766 0.021-2.645l-0.002 0.133c0-47.224 16.716-87.593 50.232-121.11s73.97-50.316 121.193-50.316zM847.978 722.232c0.002 0.177 0.003 0.385 0.003 0.594 0 16.843-7.017 32.046-18.286 42.848l-0.021 0.020c-10.794 11.289-25.977 18.307-42.796 18.307-0.205 0-0.41-0.001-0.613-0.003h0.031c-0.177 0.002-0.385 0.003-0.594 0.003-16.843 0-32.046-7.017-42.848-18.286l-0.020-0.021c-11.242-10.854-18.223-26.059-18.223-42.895 0-0.199 0.001-0.399 0.003-0.598v0.031c0-16.716 6.101-31.176 18.221-43.378 10.821-11.291 26.025-18.307 42.868-18.307 0.209 0 0.418 0.001 0.626 0.003h-0.032c16.716 0 30.842 6.101 42.292 18.304 10.845 11.41 17.97 26.45 19.373 43.117l0.018 0.262zM1021.659 660.548c1.588-42.626 2.341-113.504 2.341-212.547s-1.17-170.255-3.427-213.718c-2.341-43.378-8.776-81.074-19.474-113.086-14.047-38.887-35.495-72.088-62.847-99.372l-0.005-0.005c-27.27-27.389-60.478-48.843-97.532-62.269l-1.845-0.585c-33.541-10.948-72.261-17.959-112.393-19.452l-0.777-0.023c-43.378-2.257-114.59-3.427-213.634-3.427s-170.255 1.17-213.718 3.427c-40.975 1.441-79.674 9.286-115.748 22.562l2.578-0.831c-39.024 12.557-72.382 33.401-99.364 60.582l-0.015 0.015c-27.359 27.289-48.807 60.491-62.265 97.527l-0.588 1.852c-10.913 33.52-17.895 72.216-19.368 112.318l-0.022 0.768c-2.265 53.56-3.556 116.401-3.556 179.544 0 12.017 0.047 24.022 0.14 36.017l-0.012-1.843c0 99.044 1.087 170.255 3.427 213.718 2.257 43.378 8.692 81.074 19.39 113.086 27.502 75.962 86.288 134.775 160.374 161.724l1.857 0.591c33.538 10.878 72.258 17.858 112.378 19.367l0.792 0.023c43.462 2.257 114.673 3.427 213.718 3.427s170.255-1.17 213.634-3.427c43.462-2.257 81.158-8.776 113.17-19.39 75.943-27.54 134.729-86.353 161.641-160.457l0.59-1.858c10.698-32.012 17.553-70.042 20.561-114.256zM912.001 146.356c9.111 25.91 15.212 67.032 18.304 123.366 1.505 33.516 2.257 80.74 2.257 141.754v73.134c0 62.436-0.752 109.658-2.257 141.671-3.092 57.922-9.194 99.044-18.304 123.366-17.026 45.787-52.505 81.265-97.155 97.92l-1.137 0.371c-24.406 9.194-65.528 15.296-123.45 18.304-37.155 1.465-80.775 2.3-124.588 2.3-6.007 0-12.010-0.016-18.011-0.047l0.93 0.004h-73.134c-60.931 0-108.154-0.752-141.671-2.257-56.417-3.009-97.54-9.111-123.45-18.304-45.787-17.026-81.265-52.505-97.92-97.155l-0.371-1.137c-9.111-24.322-15.212-65.444-18.221-123.366-1.505-33.516-2.341-80.74-2.341-141.671v-73.134c0-61.015 0.836-108.238 2.341-141.754 3.009-56.333 9.111-97.456 18.221-123.366 19.808-47.224 52.573-79.987 98.292-98.292 25.91-9.111 67.032-15.212 123.45-18.304 33.516-1.505 80.74-2.257 141.671-2.257h73.134c62.518 0 109.742 0.752 141.671 2.257 57.922 3.092 99.044 9.194 123.45 18.304 47.224 19.808 79.987 52.573 98.292 98.292z" />
<glyph unicode="&#xe904;" glyph-name="right-arrow" d="M295.25 959.999l470.912-479.287 26.803-32.759-26.803-32.666-470.912-479.287-64.216 65.332 441.503 446.621-441.503 446.621 64.216 65.425z" />
<glyph unicode="&#xe905;" glyph-name="left-arrow" d="M728.75-63.999l-470.912 479.287-26.803 32.759 26.803 32.666 470.912 479.287 64.216-65.332-441.503-446.621 441.503-446.621-64.216-65.425z" />
<glyph unicode="&#xe906;" glyph-name="close" d="M1024 38.429l-102.429-102.429-409.571 409.619-409.571-409.619-102.429 102.429 409.619 409.571-409.619 409.571 102.429 102.429 409.571-409.619 409.571 409.619 102.429-102.429-409.619-409.571 409.619-409.571z" />
<glyph unicode="&#xe907;" glyph-name="down-arrow" d="M1023.999 664.75l-479.287-470.912-32.759-26.803-32.666 26.803-479.287 470.912 65.332 64.216 446.621-441.503 446.621 441.503 65.425-64.216z" />
<glyph unicode="&#xe908;" glyph-name="up-arrow" d="M0.001 231.25l479.287 470.912 32.759 26.803 32.666-26.803 479.287-470.912-65.332-64.216-446.621 441.503-446.621-441.503-65.425 64.216z" />
<glyph unicode="&#xe909;" glyph-name="comment" d="M512 64.992c-20.768 0-51.168 23.36-71.328 25.504-57.504-48.224-117.408-106.272-198.848-136.448-35.552-15.072-66.080-23.808-74.016-14.304-10.656 12.384-26.752 29.568-29.6 34.176 0.16 6.848 8.448 1.44 17.472 11.168 49.152 20.672 80.896 74.016 102.24 139.232-153.952 77.152-257.92 221.888-257.92 388.096 0 247.072 229.248 447.392 512 447.392s512-200.288 512-447.392-229.248-447.424-512-447.424z" />
<glyph unicode="&#xe90a;" glyph-name="right" d="M888.582 832.444l135.418-135.422-633.467-633.467-390.533 390.524 135.418 135.422 255.115-255.106 498.049 498.049z" />
<glyph unicode="&#xe90b;" glyph-name="edit" d="M957.673 893.666c-88.146 88.364-231.492 88.364-319.638 0l-586.039-585.821c-4.582-4.582-7.418-10.473-8.291-16.8l-43.418-321.602c-1.309-9.164 1.964-18.327 8.291-24.655 5.455-5.455 13.091-8.727 20.727-8.727 1.309 0 2.618 0 3.927 0.218l193.746 26.182c16.146 2.182 27.491 17.018 25.309 33.164s-17.018 27.491-33.164 25.309l-155.346-20.946 30.327 224.292 236.074-236.074c5.455-5.455 13.091-8.727 20.727-8.727s15.273 3.055 20.727 8.727l586.039 585.821c42.764 42.764 66.328 99.491 66.328 159.928s-23.564 117.164-66.328 159.71zM649.381 821.665l98.4-98.4-534.766-534.766-98.4 98.4 534.766 534.766zM351.125 50.607l-96.219 96.219 534.766 534.766 96.219-96.219-534.766-534.766zM926.91 627.483l-235.419 235.419c29.891 24.655 67.2 38.182 106.473 38.182 44.727 0 86.619-17.455 118.255-48.873s48.873-73.528 48.873-118.255c0-39.491-13.527-76.582-38.182-106.473z" />
<glyph unicode="&#xe90c;" glyph-name="redo" d="M1001.809 410.174l-170.641-170.667c-14.21-14.21-33.527-22.225-53.653-22.225s-39.443 7.99-53.627 22.225l-170.667 170.667c-29.608 29.608-29.608 77.647 0 107.255 29.608 29.633 77.647 29.633 107.255 0l46.32-46.32c-11.833 142.576-131.375 255.014-276.96 255.014-153.322 0-278.123-124.776-278.123-278.123 0-153.322 124.802-278.123 278.123-278.123 41.896 0 75.852-33.956 75.852-75.852s-33.956-75.852-75.852-75.852c-236.986 0-429.827 192.815-429.827 429.827s192.841 429.827 429.827 429.827c225.937 0 411.269-175.294 428.209-396.907l36.459 36.51c29.633 29.633 77.672 29.633 107.255 0 29.633-29.582 29.633-77.622 0.051-107.255z" />
<glyph unicode="&#xe90d;" glyph-name="add" d="M903.534 569.905h-269.629v269.629c0 66.243-55.637 120.466-121.905 120.466s-121.905-54.223-121.905-120.466v-269.629h-269.629c-66.243 0-120.466-55.637-120.466-121.905s54.223-121.905 120.466-121.905h269.629v-269.629c0-66.243 55.637-120.466 121.905-120.466s121.905 54.223 121.905 120.466v269.629h269.629c66.243 0 120.466 55.637 120.466 121.905s-54.223 121.905-120.466 121.905z" />
<glyph unicode="&#xe90e;" glyph-name="minus" d="M903.533 569.905h-783.067c-66.243 0-120.466-55.637-120.466-121.905s54.223-121.905 120.466-121.905h783.067c66.243 0 120.466 55.637 120.466 121.905s-54.223 121.905-120.466 121.905z" />
<glyph unicode="&#xe90f;" glyph-name="call" d="M1001.043 150.739l-158.141 158.158c-31.499 31.372-83.661 30.419-116.257-2.189l-79.672-79.654c-5.034 2.774-10.244 5.672-15.721 8.746-50.312 27.877-119.173 66.086-191.634 138.601-72.676 72.667-110.921 141.634-138.883 191.978-2.951 5.334-5.778 10.476-8.57 15.36l79.76 79.713c32.646 32.655 33.546 84.803 2.121 116.266l-158.141 158.176c-31.425 31.419-83.611 30.466-116.257-2.189l-44.569-44.825 1.218-1.209c-14.945-19.069-27.433-41.063-36.726-64.78-8.567-22.576-13.9-44.119-16.339-65.707-20.881-173.112 58.226-331.323 272.912-546.013 296.762-296.741 535.913-274.324 546.23-273.23 22.47 2.686 44.005 8.055 65.889 16.554 23.511 9.185 45.49 21.655 64.548 36.568l0.974-0.865 45.152 44.213c32.578 32.649 33.517 84.814 2.106 116.328z" />
<glyph unicode="&#xe910;" glyph-name="maps" d="M512 959.999c-204.49 0-370.854-166.364-370.854-370.852 0-253.776 331.878-626.334 346.008-642.070 13.272-14.782 36.444-14.756 49.692 0 14.13 15.736 346.008 388.294 346.008 642.070-0.004 204.488-166.366 370.852-370.854 370.852zM512 402.561c-102.884 0-186.584 83.702-186.584 186.586s83.702 186.584 186.584 186.584 186.582-83.702 186.582-186.586-83.7-186.584-186.582-186.584z" />
<glyph unicode="&#xe911;" glyph-name="mail1" d="M512 840c-115.794 0-210-94.206-210-210 0-71.886 36.252-138.030 96.974-176.934 62.006-39.726 138.12-43.948 208.852-11.406 15.050 6.924 21.64 24.74 14.714 39.792-6.924 15.050-24.738 21.64-39.792 14.716-51.72-23.796-106.908-21.090-151.406 7.418-43.42 27.818-69.342 75.076-69.342 126.414 0 82.71 67.29 150 150 150s150-67.29 150-150c0-16.542-13.458-30-30-30-15.116 0-29.236 11.464-29.996 29.544-0.002 0.152-0.004 0.304-0.004 0.456 0 49.626-40.374 90-90 90s-90-40.374-90-90 40.374-90 90-90c23.032 0 44.062 8.706 59.998 22.988 15.934-14.284 36.968-22.988 60.002-22.988 49.626 0 90 40.374 90 90 0 115.794-94.206 210-210 210zM541.578 625.188c-2.316-14.258-14.678-25.188-29.578-25.188-16.542 0-30 13.458-30 30s13.458 30 30 30c15.382 0 28.080-11.64 29.79-26.57-0.448-2.726-0.522-5.5-0.212-8.242zM961.998 566.048c-0.008 7.758-3.132 15.512-8.786 21.166l-111.212 111.212v231.574c0 16.568-13.432 30-30 30h-600c-16.568 0-30-13.432-30-30v-231.574l-111.212-111.212c-0.104-0.104-0.192-0.22-0.294-0.326-5.622-5.792-8.48-13.418-8.492-20.84 0-0.020-0.002-0.038-0.002-0.058v-539.99c0-49.69 40.432-90 90-90h720c49.678 0 90 40.414 90 90v539.99c0 0.020-0.002 0.038-0.002 0.058zM842 613.574l47.574-47.574-47.574-47.574v95.148zM242 685.99c0 0.006 0 0.014 0 0.020v213.99h540v-213.99c0-0.006 0-0.014 0-0.020v-227.564l-162.426-162.426h-215.148l-162.426 162.426v227.564zM182 613.574v-95.148l-47.574 47.574 47.574 47.574zM122 38.426v455.148l227.574-227.574-227.574-227.574zM164.428-4l239.998 240h215.148l239.998-240h-695.144zM902 38.426l-227.574 227.574 227.574 227.574v-455.148z" />
<glyph unicode="&#xe912;" glyph-name="instagram-dark" d="M874 960h-724c-82.703 0-150-67.297-150-150v-724c0-82.703 67.297-150 150-150h724c82.703 0 150 67.297 150 150v724c0 82.703-67.297 150-150 150zM514 180c-148.883 0-270 121.117-270 270s121.117 270 270 270 270-121.117 270-270-121.117-270-270-270zM814 660c-49.625 0-90 40.375-90 90s40.375 90 90 90 90-40.375 90-90-40.375-90-90-90zM814 780c-16.555 0-30-13.445-30-30s13.445-30 30-30 30 13.445 30 30-13.445 30-30 30zM514 660c-115.781 0-210-94.219-210-210s94.219-210 210-210 210 94.219 210 210-94.219 210-210 210z" />
<glyph unicode="&#xe913;" glyph-name="mail" d="M932.564 45.713c23.018 0 42.963 7.6 59.918 22.607l-290.116 290.127c-6.961-4.984-13.707-9.831-20.080-14.44-21.711-15.996-39.332-28.478-52.863-37.422-13.529-8.965-31.529-18.102-53.998-27.431-22.484-9.34-43.431-13.996-62.863-13.996h-1.138c-19.433 0-40.38 4.653-62.863 13.996-22.482 9.329-40.483 18.467-53.998 27.431-13.529 8.944-31.14 21.425-52.863 37.422-6.053 4.438-12.767 9.307-20.025 14.518l-290.171-290.205c16.953-15.007 36.911-22.607 59.927-22.607h841.132zM57.72 541.14c-21.709 14.473-40.96 31.049-57.72 49.721v-441.404l255.707 255.707c-51.156 35.714-117.068 80.987-197.986 135.977zM966.858 541.14c-77.833-52.68-143.984-98.032-198.462-136.079l255.604-255.616v441.415c-16.388-18.296-35.433-34.861-57.142-49.721zM932.564 850.287h-841.13c-29.345 0-51.905-9.909-67.71-29.707-15.817-19.807-23.713-44.578-23.713-74.285 0-23.996 10.478-49.996 31.425-78.007 20.947-28 43.236-49.994 66.856-65.992 12.949-9.149 51.998-36.296 117.148-81.432 35.169-24.371 65.754-45.614 92.036-63.945 22.403-15.609 41.723-29.127 57.674-40.345 1.831-1.285 4.711-3.345 8.533-6.077 4.118-2.958 9.329-6.711 15.758-11.354 12.38-8.954 22.665-16.191 30.856-21.72 8.18-5.531 18.091-11.709 29.718-18.569 11.618-6.851 22.575-12.003 32.86-15.429 10.287-3.425 19.809-5.142 28.569-5.142h1.138c8.758 0 18.283 1.718 28.571 5.142 10.283 3.426 21.231 8.567 32.858 15.429 11.616 6.86 21.514 13.051 29.72 18.569 8.191 5.529 18.476 12.765 30.858 21.72 6.416 4.642 11.627 8.398 15.745 11.344 3.824 2.744 6.702 4.791 8.545 6.087 12.426 8.647 31.791 22.109 57.826 40.187 47.374 32.916 117.144 81.363 209.602 145.535 27.807 19.422 51.039 42.86 69.71 70.281 18.638 27.42 27.982 56.183 27.982 86.279 0 25.145-9.060 46.66-27.14 64.581-18.1 17.898-39.534 26.851-64.296 26.851z" />
<glyph unicode="&#xe914;" glyph-name="notification" d="M345.77 109.738h87.495c0-45.454 35.214-82.318 78.734-82.318 43.463 0 78.734 36.864 78.734 82.318h87.495c0-95.972-74.411-173.739-166.229-173.739s-166.229 77.767-166.229 173.739zM975.701 237.738v-18.318c0-45.568-35.271-82.261-78.791-82.261h-769.876c-43.463 0-78.734 36.807-78.734 82.261v18.318c0 66.276 45.113 121.572 104.96 134.372v213.049c0 207.076 160.597 374.841 358.741 374.841s358.684-167.822 358.684-374.841v-213.049c59.961-12.743 105.017-68.039 105.017-134.372zM888.206 237.738c0 25.259-19.57 45.682-43.918 45.682-33.735 0-61.099 28.786-61.099 63.886v237.852c0 156.558-121.401 283.42-271.189 283.42-149.845 0-271.246-126.862-271.246-283.42v-237.852c0-35.271-27.42-63.886-61.042-63.886-24.292 0-43.918-20.48-43.918-45.682v-9.159h752.411v9.159z" />
<glyph unicode="&#xe915;" glyph-name="message" d="M927.999 832.001h-831.999c-52.938 0-96.001-43.063-96.001-96.001v-576c0-52.938 43.063-96.001 96.001-96.001h831.999c52.938 0 96.001 43.063 96.001 96.001v576c0 52.938-43.063 96.001-96.001 96.001zM927.999 768.001c4.348 0 8.484-0.902 12.265-2.477l-428.264-371.18-428.267 371.18c3.781 1.573 7.917 2.477 12.265 2.477zM927.999 128.001h-831.999c-17.656 0-32.001 14.343-32.001 32.001v537.905l427.031-370.094c6.032-5.218 13.501-7.813 20.969-7.813s14.937 2.593 20.969 7.813l427.031 370.094v-537.907c-0.002-17.656-14.345-31.999-32.001-31.999z" />
<glyph unicode="&#xe916;" glyph-name="arrow-down" d="M511.916-64c-11.264 0.433-24.262 5.002-32.493 12.603l-267.786 248.25c-15.322 16.818-21.663 49.075-3.938 67.863 17.488 18.512 51.399 17.96 68.926-0.473l188.029-174.559v823.76c0 25.719 21.19 46.555 47.264 46.555 0.117 0.001 0.256 0.002 0.395 0.002 25.775 0 46.691-20.806 46.869-46.539v-823.777l188.029 174.559c16.149 15.873 51.241 18.827 68.926 0.473 17.645-18.315 12.012-51.753-3.938-67.863l-267.786-248.25c-9.177-8.507-19.93-12.642-32.493-12.603z" />
<glyph unicode="&#xe917;" glyph-name="arrow-up" d="M512.084 960c11.264-0.433 24.262-5.002 32.493-12.603l267.786-248.25c15.322-16.818 21.663-49.075 3.938-67.863-17.488-18.512-51.399-17.96-68.926 0.473l-188.029 174.559v-823.76c0-25.719-21.19-46.555-47.264-46.555-0.117-0.001-0.256-0.002-0.395-0.002-25.775 0-46.691 20.806-46.869 46.539v823.777l-188.029-174.559c-16.149-15.873-51.241-18.827-68.926-0.473-17.645 18.315-12.012 51.753 3.938 67.863l267.786 248.25c9.177 8.507 19.93 12.642 32.493 12.603z" />
<glyph unicode="&#xe918;" glyph-name="deposite" d="M493.935 708.548h7.836c2.391-21.281 20.5-37.891 42.43-37.891h28.961c23.555 0 42.719 19.156 42.719 42.695v30.391c0 1.484 1.227 2.695 2.727 2.695h30.672c1.5 0 2.727-1.211 2.727-2.695v-30.391c0-1.484-1.227-2.695-2.727-2.695h-2.805c-11.047 0-20-8.953-20-20s8.953-20 20-20h2.805c21.93 0 40.031 16.602 42.438 37.891h7.828c11.039 0 20 8.953 20 20s-8.961 20-20 20h-7.828c-2.398 21.281-20.508 37.891-42.438 37.891h-30.672c-23.555 0-42.727-19.148-42.727-42.695v-30.391c0-1.484-1.219-2.695-2.719-2.695h-28.961c-1.5 0-2.719 1.211-2.719 2.695v30.391c0 1.484 1.219 2.695 2.719 2.695 11.047 0 20 8.953 20 20s-8.953 20-20 20c-21.93 0-40.031-16.602-42.43-37.891h-7.828c-11.047 0-20-8.953-20-20 0-11.039 8.953-20 19.992-20zM913.341 311.149l-114.391 153.203v192.578c0 0.086 0.008 0.164 0.008 0.25v108.797h72.82c27.781 0 50.383 22.594 50.383 50.367v93.297c0 27.766-22.602 50.359-50.383 50.359h-544.016c-27.773 0-50.367-22.594-50.367-50.359v-93.297c0-27.773 22.594-50.367 50.367-50.367h66.75v-211.078l-99.070 105.82c-3.789 4.039-9.070 6.336-14.602 6.336-5.539 0-10.82-2.297-14.602-6.336l-167.203-178.578c-5.445-5.82-6.914-14.313-3.75-21.625 3.172-7.313 10.383-12.039 18.352-12.039h75.68v-66.016c0-11.039 8.953-20 20-20s20 8.961 20 20v86.016c0 5.305-2.109 10.391-5.859 14.141s-8.836 5.859-14.141 5.859h-49.555l121.078 129.313 121.070-129.313h-55.625c-11.047 0-20-8.961-20-20v-264.93h-96.969v22.914c0 11.047-8.961 20-20 20-11.047 0-20-8.953-20-20v-42.914c0-11.047 8.953-20 20-20h136.969c11.039 0 20 8.953 20 20v264.922h28.227v-113.297c0-11.047 8.953-20 20-20h72.305c0.047 0 0.102 0.008 0.148 0.008h108.328v-221.039h-24.367c-11.047 0-20-8.961-20-20v-118.141c0-11.047 8.953-20 20-20h291.602c11.039 0 20 8.953 20 20v118.133c0 11.047-8.961 20-20 20h-21.508c0.75 2.734 1.742 5.398 2.984 7.945l75.898 116.375c0.383 0.578 0.727 1.18 1.047 1.789 14.906 29.047 11.922 64.719-7.609 90.906zM842.529-23.999h-251.594v78.133h251.594zM434.521 785.978v17.852c8.727 11.516 19.531 22.008 32.234 31.313h261.594c11.914-8.727 22.172-18.523 30.602-29.219v-142.078c-33.789-42.883-94.953-69.281-161.406-69.281-67.797 0-129.594 27.211-163.023 71.383zM758.88 355.181h-28.328c5.313 12.781 15.547 23.016 28.328 28.328zM726.333 315.173h32.547v-43.648c0-4.344-1.695-8.43-4.766-11.5s-7.148-4.766-11.492-4.766c-8.984 0-16.289 7.297-16.289 16.266zM327.763 805.978c-5.719 0-10.367 4.648-10.367 10.367v93.297c0 5.711 4.648 10.359 10.367 10.359h544.016c5.727 0 10.383-4.648 10.383-10.359v-93.297c0-5.719-4.656-10.367-10.383-10.367h-72.82v29.172h34.414c11.047 0 20 8.953 20 20s-8.953 20-20 20h-467.188c-11.047 0-20-8.953-20-20s8.953-20 20-20h28.328v-29.172zM434.513 355.181v28.328c12.781-5.313 23.016-15.547 28.328-28.328zM595.294 355.181h-90.688c-7.734 34.867-35.234 62.359-70.094 70.094v23.203h13.523c7.961 0 15.172 4.727 18.344 12.039 1.984 4.57 2.148 9.602 0.672 14.156-0.891 2.734-2.375 5.297-4.422 7.477l-28.117 30.039v96.828c42.188-34.344 100.703-54.453 163.031-54.453 61.313 0 119.281 19.648 161.406 53.18v-148.266c-0.047-0.555-0.070-1.109-0.070-1.672v-32.531c-11.984-2.656-23.086-7.648-32.828-14.469-1.398 15.188-7.984 29.289-18.891 40.203-12.359 12.391-28.813 19.211-46.344 19.211h-0.008c-36.125 0-65.516-29.391-65.516-65.516zM885.786 239.36l-75.898-116.375c-0.375-0.578-0.727-1.172-1.039-1.781-4.344-8.461-7.266-17.648-8.625-27.063h-164.93v310.563c0 14.305 11.211 25.516 25.516 25.516 6.82 0 13.219-2.648 18.039-7.484 4.82-4.82 7.484-11.227 7.484-18.031v-133.18c0-31.023 25.25-56.266 56.289-56.266 15.023 0 29.156 5.852 39.781 16.477s16.477 24.758 16.477 39.789v62.227c0.031 0.477 0.070 0.945 0.070 1.43v62.313l82.336-110.273c10.273-13.773 12.008-32.461 4.5-47.859zM190.849 296.259c3.164-7.586 10.859-12.594 19.094-12.328 7.984 0.258 15.289 5.445 18.078 12.945 2.953 7.93 0.555 17.125-6.023 22.5-6.664 5.445-16.273 5.977-23.516 1.344-8.063-5.164-11.242-15.641-7.633-24.461z" />
<glyph unicode="&#xe919;" glyph-name="withdraw" d="M896 874.666h-768c-70.57 0-128-57.43-128-128v-170.666c0-70.57 57.43-128 128-128h85.334v-384c0-23.594 19.114-42.666 42.666-42.666h512c23.594 0 42.666 19.072 42.666 42.666v384h85.334c70.57 0 128 57.43 128 128v170.666c0 70.572-57.43 128-128 128zM725.334 106.666h-426.668v512h426.666v-512zM938.666 576c0-23.51-19.114-42.666-42.666-42.666h-85.334v85.334h42.666c23.594 0 42.666 19.114 42.666 42.666s-19.070 42.666-42.664 42.666h-682.668c-23.552 0-42.666-19.114-42.666-42.666s19.114-42.666 42.666-42.666h42.666v-85.334h-85.332c-23.51 0-42.666 19.158-42.666 42.666v170.666c0 23.51 19.158 42.666 42.666 42.666h768c23.552 0 42.666-19.158 42.666-42.666v-170.666zM529.066 401.066v63.574c13.824-3.584 27.050-9.174 39.254-16.64 2.518-0.512 5.162-0.512 7.68 0 11.776-0.214 21.546 9.13 21.76 20.906-0.086 4.096-1.578 8.022-4.266 11.094-17.706 16.17-40.49 25.686-64.426 26.88v22.614c-0.214 8.064-6.87 14.506-14.934 14.506-0.17 0-0.298 0-0.47 0-8.234 0.256-15.104-6.272-15.318-14.506v-22.186c-41.642 1.238-76.63-30.934-78.934-72.534 0-49.066 40.534-62.72 78.934-72.534v-71.68c-17.92 2.518-34.858 9.728-49.066 20.906-3.542 2.73-7.894 4.224-12.374 4.266-11.434-0.47-20.48-9.856-20.48-21.334 0-4.224 1.536-8.32 4.266-11.52 21.034-19.84 48.726-31.104 77.654-31.574v-21.334c0-0.17 0-0.298 0-0.47 0.512-8.234 7.552-14.506 15.786-14.038 8.064 0 14.72 6.442 14.934 14.506v21.334c55.466 5.12 78.934 37.974 80.64 74.666 0 49.926-42.24 64.858-80.64 75.098zM498.346 410.454c-19.626 5.546-33.706 10.666-33.706 27.306s13.226 28.16 33.706 30.294v-57.6zM529.066 290.56v63.572c20.054-5.974 34.986-17.066 34.986-31.146 0.002-14.080-9.812-28.586-34.986-32.426z" />
<glyph unicode="&#xe91a;" glyph-name="money-bag" d="M546.49 317.285h-58.545c-21.289 0-38.533 17.244-38.533 38.533s17.244 38.533 38.533 38.533h103.039c14.051 0 25.547 11.496 25.547 25.547s-11.496 25.547-25.547 25.547h-48.326v35.553c0 14.051-11.496 25.547-25.547 25.547s-25.547-11.496-25.547-25.547v-35.553h-3.619c-49.39 0-89.627-40.236-89.627-89.627s40.236-89.627 89.627-89.627h58.545c21.289 0 38.533-17.244 38.533-38.533s-17.244-38.533-38.533-38.533h-104.955c-14.051 0-25.547-11.496-25.547-25.547s11.496-25.547 25.547-25.547h50.242v-36.404c0-14.051 11.496-25.547 25.547-25.547s25.547 11.496 25.547 25.547v36.404h4.258c0.213 0 0.426 0 0.639 0 48.965 0.639 88.349 40.662 88.349 89.627 0 49.39-40.236 89.627-89.627 89.627zM901.165 375.191c-26.824 61.738-63.867 121.56-110.703 177.55-56.629 68.125-113.044 113.683-141.785 134.759l108.574 201.394c5.322 10.006 3.619 22.353-4.684 30.23-28.101 27.463-57.906 40.875-91.117 40.875-30.443 0-58.332-11.496-82.601-21.715-19.16-7.877-37.256-15.541-51.945-15.541-4.471 0-8.303 0.639-12.135 2.129-50.668 18.521-89.627 30.017-127.308 30.017-47.687 0-88.349-19.16-128.16-60.035-8.303-8.516-9.58-21.928-2.98-31.933l117.089-176.911c-28.953-21.502-84.304-66.635-139.869-133.269-46.623-55.99-83.879-115.812-110.703-177.55-33.637-77.705-50.668-158.816-50.668-240.991 0-109.212 88.988-198.2 198.2-198.2h483.26c109.212 0 198.2 88.988 198.2 198.2 0 82.175-17.031 163.286-50.668 240.991zM310.821 873.566c24.695 21.289 48.326 30.656 76.64 30.656 30.23 0 64.293-10.219 109.638-27.037 9.367-3.406 19.373-5.109 29.592-5.109 24.908 0 48.752 9.793 71.531 19.373 21.928 9.154 42.791 17.883 63.015 17.883 9.793 0 23.631-1.703 41.088-14.051l-102.187-189.898h-177.976l-111.341 168.183zM753.632-12.907h-483.26c-81.111 0-147.107 65.996-147.107 147.107 0 136.462 50.029 265.899 148.384 384.692 62.164 75.15 125.392 121.773 144.552 135.398h191.175c19.373-13.412 82.388-60.248 144.552-135.398 98.568-118.793 148.384-248.017 148.384-384.692 0.426-81.111-65.57-147.107-146.681-147.107z" />
<glyph unicode="&#xe91b;" glyph-name="file-support" d="M864 960h-768c-52.8 0-96-43.2-96-96v-832c0-52.8 43.2-96 96-96h768c52.8 0 96 43.2 96 96v832c0 52.8-43.2 96-96 96zM832 64h-704v768h704v-768zM256 512h448v-64h-448zM256 384h448v-64h-448zM256 256h448v-64h-448zM256 640h448v-64h-448z" />
<glyph unicode="&#xe91c;" glyph-name="streaming" d="M768 596.667v86h-512v-86h512zM768 468.667v86h-512v-86h512zM768 340.667v86h-512v-86h512zM938 768.667v-768l-170 170h-598q-34 0-59 26t-25 60v512q0 34 25 59t59 25h684q34 0 59-25t25-59z" />
</font>
</defs>
</svg>
